<svg width="22" height="22" viewBox="0 0 22 22" fill="none" xmlns="http://www.w3.org/2000/svg">
<path d="M17.7664 9.56138C17.4565 9.29578 4.84085 0.486978 4.26539 0.132849L4.08838 0V2.16899C4.08838 2.87725 4.44245 3.09858 4.88512 3.45271L4.97365 3.49702C5.59337 3.93969 14.5793 10.1811 15.7744 11.0222C14.5793 11.8632 5.46055 18.1932 4.88512 18.5473C4.17686 18.9899 4.13259 19.2998 4.13259 19.9195V22C4.13259 22 17.545 12.66 17.8106 12.4387C18.4303 11.996 18.5631 11.4206 18.5631 11.0664V10.8008C18.5631 10.3582 18.2975 9.91554 17.7664 9.56143V9.56138Z" fill="#242748"/>
<path d="M9.88729 11.9959C10.2414 11.9959 10.5955 11.8631 10.9497 11.5975C11.3923 11.2877 11.7907 11.0221 11.7907 11.0221L11.9235 10.9335L11.7907 10.845C11.7463 10.8007 5.85912 6.72833 5.2394 6.32995C4.97381 6.10862 4.61968 6.06434 4.39834 6.1971C4.17702 6.32994 4 6.55123 4 6.90536V8.27761L4.04432 8.32192C4.08865 8.36626 8.11671 11.1549 8.91349 11.6861C9.26762 11.9074 9.57748 11.996 9.88734 11.996L9.88729 11.9959Z" fill="#242748"/>
</svg>
